<svg width="30" height="30" viewBox="0 0 30 30" fill="none" xmlns="http://www.w3.org/2000/svg">
<path d="M6.25 10.6433C6.25 6.14588 10.1675 2.5 15 2.5C19.8325 2.5 23.75 6.14588 23.75 10.6433C23.75 15.1055 20.9573 20.3124 16.6001 22.1744C15.5843 22.6085 14.4157 22.6085 13.3999 22.1744C9.0427 20.3124 6.25 15.1055 6.25 10.6433Z" stroke="#E5C16E" stroke-width="1.5"/>
<path d="M17.5 11.25C17.5 12.6307 16.3807 13.75 15 13.75C13.6193 13.75 12.5 12.6307 12.5 11.25C12.5 9.86929 13.6193 8.75 15 8.75C16.3807 8.75 17.5 9.86929 17.5 11.25Z" stroke="#E5C16E" stroke-width="1.5"/>
<path d="M26.2007 19.375C27.0324 20.1281 27.5 20.977 27.5 21.875C27.5 24.9816 21.9036 27.5 15 27.5C8.09644 27.5 2.5 24.9816 2.5 21.875C2.5 20.977 2.96765 20.1281 3.79933 19.375" stroke="#E5C16E" stroke-width="1.5" stroke-linecap="round"/>
</svg>
