<svg width="30" height="30" viewBox="0 0 30 30" fill="none" xmlns="http://www.w3.org/2000/svg">
<path d="M20 5.0022C22.7188 5.01733 24.1912 5.13789 25.1517 6.09837C26.25 7.19672 26.25 8.96449 26.25 12.5V20C26.25 23.5356 26.25 25.3033 25.1517 26.4017C24.0533 27.5 22.2855 27.5 18.75 27.5H11.25C7.71447 27.5 5.9467 27.5 4.84835 26.4017C3.75 25.3033 3.75 23.5356 3.75 20V12.5C3.75 8.96449 3.75 7.19672 4.84835 6.09837C5.80883 5.13789 7.28122 5.01733 10 5.0022" stroke="#E5C16E" stroke-width="1.5"/>
<path d="M13.125 17.5H21.25" stroke="#E5C16E" stroke-width="1.5" stroke-linecap="round"/>
<path d="M8.75 17.5H9.375" stroke="#E5C16E" stroke-width="1.5" stroke-linecap="round"/>
<path d="M8.75 13.125H9.375" stroke="#E5C16E" stroke-width="1.5" stroke-linecap="round"/>
<path d="M8.75 21.875H9.375" stroke="#E5C16E" stroke-width="1.5" stroke-linecap="round"/>
<path d="M13.125 13.125H21.25" stroke="#E5C16E" stroke-width="1.5" stroke-linecap="round"/>
<path d="M13.125 21.875H21.25" stroke="#E5C16E" stroke-width="1.5" stroke-linecap="round"/>
<path d="M10 4.375C10 3.33947 10.8395 2.5 11.875 2.5H18.125C19.1605 2.5 20 3.33947 20 4.375V5.625C20 6.66053 19.1605 7.5 18.125 7.5H11.875C10.8395 7.5 10 6.66053 10 5.625V4.375Z" stroke="#E5C16E" stroke-width="1.5"/>
</svg>
