<svg width="44" height="44" viewBox="0 0 44 44" fill="none" xmlns="http://www.w3.org/2000/svg">
<path opacity="0.5" d="M29.3333 7.33652C33.3209 7.35871 35.4804 7.53554 36.8891 8.94424C38.5 10.5552 38.5 13.1479 38.5 18.3333V29.3333C38.5 34.5188 38.5 37.1115 36.8891 38.7224C35.2782 40.3333 32.6855 40.3333 27.5 40.3333H16.5C11.3146 40.3333 8.72183 40.3333 7.11091 38.7224C5.5 37.1115 5.5 34.5188 5.5 29.3333V18.3333C5.5 13.1479 5.5 10.5552 7.11091 8.94424C8.51962 7.53554 10.6791 7.35871 14.6667 7.33652" stroke="#EAEAEA" stroke-width="1.5"/>
<path d="M14.6666 25.6667H29.3333" stroke="#E6C16E" stroke-width="1.5" stroke-linecap="round"/>
<path d="M12.8334 19.25H31.1667" stroke="#E6C16E" stroke-width="1.5" stroke-linecap="round"/>
<path d="M16.5 32.0833H27.5" stroke="#E6C16E" stroke-width="1.5" stroke-linecap="round"/>
<path d="M14.6666 6.41667C14.6666 4.89789 15.8978 3.66667 17.4166 3.66667H26.5833C28.1021 3.66667 29.3333 4.89789 29.3333 6.41667V8.25001C29.3333 9.76879 28.1021 11 26.5833 11H17.4166C15.8978 11 14.6666 9.76879 14.6666 8.25001V6.41667Z" stroke="#E6C16E" stroke-width="1.5"/>
</svg>
