<svg width="44" height="44" viewBox="0 0 44 44" fill="none" xmlns="http://www.w3.org/2000/svg">
<path opacity="0.5" d="M23.8334 12.8333C23.8334 13.8459 23.0125 14.6667 22 14.6667C20.9875 14.6667 20.1667 13.8459 20.1667 12.8333C20.1667 11.8208 20.9875 11 22 11C23.0125 11 23.8334 11.8208 23.8334 12.8333Z" stroke="#EAEAEA" stroke-width="1.5"/>
<path opacity="0.5" d="M33 11C29.9624 11 27.5 8.53757 27.5 5.5" stroke="#EAEAEA" stroke-width="1.5" stroke-linecap="round"/>
<path opacity="0.5" d="M33 14.6667C29.9624 14.6667 27.5 17.1291 27.5 20.1667" stroke="#EAEAEA" stroke-width="1.5" stroke-linecap="round"/>
<path opacity="0.5" d="M11 11C14.0376 11 16.5 8.53757 16.5 5.5" stroke="#EAEAEA" stroke-width="1.5" stroke-linecap="round"/>
<path opacity="0.5" d="M11 14.6667C14.0376 14.6667 16.5 17.1291 16.5 20.1667" stroke="#EAEAEA" stroke-width="1.5" stroke-linecap="round"/>
<path d="M31.9261 19.0927C33 18.0188 33 16.2903 33 12.8333C33 9.37637 33 7.64788 31.9261 6.57394M31.9261 19.0927C30.8521 20.1667 29.1236 20.1667 25.6667 20.1667H18.3333C14.8764 20.1667 13.1479 20.1667 12.0739 19.0927M31.9261 19.0927C31.9261 19.0927 31.9261 19.0927 31.9261 19.0927ZM31.9261 6.57394C30.8521 5.5 29.1236 5.5 25.6667 5.5L18.3333 5.5C14.8764 5.5 13.1479 5.5 12.0739 6.57394M31.9261 6.57394C31.9261 6.57394 31.9261 6.57394 31.9261 6.57394ZM12.0739 6.57394C11 7.64788 11 9.37637 11 12.8333C11 16.2903 11 18.0188 12.0739 19.0927M12.0739 6.57394C12.0739 6.57394 12.0739 6.57394 12.0739 6.57394ZM12.0739 19.0927C12.0739 19.0927 12.0739 19.0927 12.0739 19.0927Z" stroke="#EAEAEA" stroke-width="1.5"/>
<path d="M31.9261 19.0927C33 18.0188 33 16.2903 33 12.8333C33 9.37637 33 7.64788 31.9261 6.57394M31.9261 19.0927C30.8521 20.1667 29.1236 20.1667 25.6667 20.1667H18.3333C14.8764 20.1667 13.1479 20.1667 12.0739 19.0927M31.9261 19.0927C31.9261 19.0927 31.9261 19.0927 31.9261 19.0927ZM31.9261 6.57394C30.8521 5.5 29.1236 5.5 25.6667 5.5L18.3333 5.5C14.8764 5.5 13.1479 5.5 12.0739 6.57394M31.9261 6.57394C31.9261 6.57394 31.9261 6.57394 31.9261 6.57394ZM12.0739 6.57394C11 7.64788 11 9.37637 11 12.8333C11 16.2903 11 18.0188 12.0739 19.0927M12.0739 6.57394C12.0739 6.57394 12.0739 6.57394 12.0739 6.57394ZM12.0739 19.0927C12.0739 19.0927 12.0739 19.0927 12.0739 19.0927Z" stroke="#E5C16E" stroke-width="1.5"/>
<path opacity="0.5" d="M7.33331 39.212H11.4765C13.3298 39.212 15.203 39.4051 17.0066 39.7767C20.197 40.434 23.5562 40.5136 26.7794 39.9919C28.3686 39.7346 29.9311 39.3413 31.3454 38.6586C32.6221 38.0424 34.186 37.1738 35.2365 36.2008C36.2855 35.2293 37.3779 33.6392 38.1533 32.3964C38.8183 31.3306 38.4967 30.023 37.4449 29.2289C36.2767 28.3468 34.5431 28.347 33.3751 29.2293L30.0619 31.7321C28.7779 32.7021 27.3753 33.595 25.7044 33.8615C25.5035 33.8935 25.293 33.9227 25.0733 33.9482M25.0733 33.9482C25.0072 33.9559 24.9402 33.9632 24.8725 33.9701M25.0733 33.9482C25.3406 33.8909 25.606 33.7261 25.855 33.5087C27.0342 32.4795 27.1088 30.745 26.0857 29.5957C25.8483 29.3291 25.5705 29.1067 25.2616 28.9225C20.1331 25.8637 12.1539 28.1934 7.33331 31.612M25.0733 33.9482C25.0064 33.9625 24.9394 33.9701 24.8725 33.9701M24.8725 33.9701C23.913 34.0686 22.7904 34.0941 21.5449 33.9765" stroke="#EAEAEA" stroke-width="1.5" stroke-linecap="round"/>
</svg>
