<svg width="74" height="61" viewBox="0 0 74 61" fill="none" xmlns="http://www.w3.org/2000/svg">
<path d="M45.2671 20.6158L51.6972 28.0352C53.3809 29.9779 52.0009 33 49.4301 33H36.5699C33.9991 33 32.6191 29.9779 34.3028 28.0352L40.7329 20.6158C41.9292 19.2356 44.0708 19.2356 45.2671 20.6158Z" fill="url(#paint0_linear_38_341)"/>
<rect x="40.0548" y="3" width="11.3331" height="32.9018" rx="5.66654" transform="rotate(45 40.0548 3)" fill="url(#paint1_linear_38_341)"/>
<path d="M10.6067 53H7.05469V52.536C7.43869 52.3653 7.82269 52.2373 8.20669 52.152L12.2547 41.608H12.7187L16.7667 52.152C16.98 52.1947 17.188 52.2427 17.3907 52.296C17.604 52.3493 17.8014 52.4293 17.9827 52.536V53H13.8867V52.536C14.1 52.4507 14.3187 52.376 14.5427 52.312C14.7667 52.248 14.9854 52.1947 15.1987 52.152L14.1107 49.224H10.2867L9.23069 52.152C9.67869 52.216 10.1374 52.344 10.6067 52.536V53ZM10.6067 48.392H13.8387L12.5747 45L12.2707 43.624H12.2387L11.8387 45.032L10.6067 48.392ZM25.8692 50.088H26.2852C26.3385 50.3867 26.3865 50.7653 26.4292 51.224C26.4719 51.672 26.4825 52.1093 26.4612 52.536C26.3012 52.664 26.1092 52.7707 25.8852 52.856C25.6612 52.9307 25.4212 52.9947 25.1652 53.048C24.9199 53.1013 24.6639 53.1387 24.3972 53.16C24.1412 53.1813 23.8959 53.192 23.6612 53.192C22.7652 53.192 21.9652 53.08 21.2612 52.856C20.5572 52.6213 19.9599 52.2693 19.4692 51.8C18.9892 51.3307 18.6159 50.7333 18.3492 50.008C18.0932 49.272 17.9652 48.4027 17.9652 47.4C17.9652 46.3547 18.1092 45.4693 18.3972 44.744C18.6852 44.008 19.0745 43.4107 19.5652 42.952C20.0559 42.4827 20.6265 42.1413 21.2772 41.928C21.9279 41.7147 22.6105 41.608 23.3252 41.608C24.0292 41.608 24.6212 41.656 25.1012 41.752C25.5812 41.8373 26.0025 41.9707 26.3652 42.152C26.3652 42.3227 26.3599 42.5253 26.3492 42.76C26.3385 42.984 26.3225 43.224 26.3012 43.48C26.2799 43.736 26.2532 43.9867 26.2212 44.232C26.1892 44.4773 26.1572 44.7013 26.1252 44.904H25.7092L24.8772 42.6C24.7599 42.536 24.5625 42.4933 24.2852 42.472C24.0185 42.4507 23.7519 42.44 23.4852 42.44C22.9519 42.44 22.4452 42.5413 21.9652 42.744C21.4959 42.936 21.0799 43.24 20.7172 43.656C20.3652 44.0613 20.0825 44.5787 19.8692 45.208C19.6559 45.8267 19.5492 46.5573 19.5492 47.4C19.5492 48.1573 19.6452 48.8453 19.8372 49.464C20.0292 50.072 20.3065 50.5947 20.6692 51.032C21.0319 51.4587 21.4745 51.7893 21.9972 52.024C22.5199 52.248 23.1119 52.36 23.7732 52.36C24.1252 52.36 24.4185 52.3333 24.6532 52.28C24.8879 52.2267 25.0425 52.1573 25.1172 52.072L25.8692 50.088ZM34.2234 53H29.7274V52.536C29.9621 52.4507 30.1968 52.376 30.4314 52.312C30.6768 52.248 30.9381 52.1947 31.2154 52.152V42.632H28.7674L27.9194 44.92H27.5194C27.4874 44.7067 27.4608 44.4667 27.4394 44.2C27.4181 43.9227 27.3968 43.6453 27.3754 43.368C27.3648 43.08 27.3541 42.8027 27.3434 42.536C27.3328 42.2587 27.3274 42.0133 27.3274 41.8H36.6234C36.6234 42.0133 36.6181 42.2533 36.6074 42.52C36.5968 42.7867 36.5808 43.064 36.5594 43.352C36.5488 43.6293 36.5328 43.9067 36.5114 44.184C36.5008 44.4507 36.4794 44.696 36.4474 44.92H36.0314L35.1994 42.632H32.7514V52.152C33.0288 52.2053 33.2848 52.2587 33.5194 52.312C33.7648 52.3653 33.9994 52.44 34.2234 52.536V53ZM40.2417 52.152C40.5297 52.184 40.8017 52.2373 41.0577 52.312C41.3137 52.376 41.5537 52.4507 41.7777 52.536V53H37.3937V52.536C37.607 52.4293 37.8257 52.3493 38.0497 52.296C38.2737 52.2427 38.4924 52.1947 38.7057 52.152V42.664C38.4604 42.6213 38.231 42.568 38.0177 42.504C37.8044 42.4293 37.5964 42.3493 37.3937 42.264V41.8H38.8337C39.2604 41.8 39.7244 41.7787 40.2257 41.736C40.727 41.6933 41.207 41.672 41.6657 41.672C42.1884 41.672 42.7004 41.7307 43.2017 41.848C43.703 41.9547 44.1457 42.1413 44.5297 42.408C44.9244 42.6747 45.239 43.032 45.4737 43.48C45.719 43.9173 45.8417 44.4667 45.8417 45.128C45.8417 45.7573 45.719 46.296 45.4737 46.744C45.2284 47.192 44.8977 47.56 44.4817 47.848C44.0764 48.136 43.6124 48.3493 43.0897 48.488C42.567 48.616 42.0284 48.68 41.4737 48.68C41.4204 48.68 41.335 48.68 41.2177 48.68C41.111 48.68 40.9937 48.68 40.8657 48.68C40.7377 48.6693 40.615 48.6587 40.4977 48.648C40.3804 48.6373 40.295 48.6267 40.2417 48.616V52.152ZM41.3297 42.504C41.0737 42.504 40.8657 42.5093 40.7057 42.52C40.5457 42.5307 40.391 42.552 40.2417 42.584V47.768C40.295 47.7893 40.3697 47.8053 40.4657 47.816C40.5724 47.816 40.679 47.8213 40.7857 47.832C40.903 47.8427 41.015 47.848 41.1217 47.848C41.2284 47.848 41.3137 47.848 41.3777 47.848C41.751 47.848 42.103 47.8 42.4337 47.704C42.7644 47.5973 43.0524 47.432 43.2977 47.208C43.5537 46.984 43.7564 46.7013 43.9057 46.36C44.055 46.0187 44.1297 45.608 44.1297 45.128C44.1297 44.2533 43.879 43.5973 43.3777 43.16C42.887 42.7227 42.2044 42.504 41.3297 42.504ZM54.5089 41.8C54.4983 42.2267 54.4769 42.6587 54.4449 43.096C54.4236 43.5227 54.3863 43.9547 54.3329 44.392H53.9169L53.2609 42.632H49.7729V46.872H52.3809L53.0049 45.688H53.4049C53.4689 46.744 53.4689 47.8213 53.4049 48.92H53.0049L52.3809 47.704H49.7729V52.168H53.4529L54.2369 50.248H54.6369C54.7116 50.696 54.7649 51.1493 54.7969 51.608C54.8289 52.0667 54.8343 52.5307 54.8129 53H46.9249V52.536C47.2983 52.3653 47.7356 52.2373 48.2369 52.152V42.664C48.0236 42.6213 47.8049 42.568 47.5809 42.504C47.3569 42.4293 47.1383 42.3493 46.9249 42.264V41.8H54.5089ZM65.4854 41.8V42.264C65.3254 42.3387 65.1388 42.4133 64.9254 42.488C64.7121 42.552 64.4614 42.6107 64.1734 42.664V52.152C64.7068 52.2267 65.1441 52.3547 65.4854 52.536V53H61.2454V52.536C61.6401 52.344 62.1041 52.216 62.6374 52.152V48.296H61.0214C60.7868 48.68 60.5734 49.0587 60.3814 49.432C60.2001 49.8053 60.0134 50.1733 59.8214 50.536C59.6294 50.8987 59.4268 51.2507 59.2134 51.592C59.0001 51.9333 58.7548 52.2693 58.4774 52.6L57.9334 53H55.9174V52.6L56.6854 52.216C57.0268 51.8533 57.3308 51.496 57.5974 51.144C57.8641 50.792 58.1094 50.4507 58.3334 50.12C58.5574 49.7893 58.7708 49.464 58.9734 49.144C59.1868 48.824 59.4001 48.5093 59.6134 48.2C59.3041 48.104 59.0054 47.9707 58.7174 47.8C58.4294 47.6293 58.1788 47.416 57.9654 47.16C57.7521 46.904 57.5814 46.6053 57.4534 46.264C57.3254 45.912 57.2614 45.512 57.2614 45.064C57.2614 44.4773 57.3894 43.976 57.6454 43.56C57.9014 43.1333 58.2374 42.7867 58.6534 42.52C59.0694 42.2533 59.5388 42.0613 60.0614 41.944C60.5948 41.816 61.1334 41.752 61.6774 41.752C61.8908 41.752 62.1521 41.7627 62.4614 41.784C62.7814 41.7947 63.1068 41.8 63.4374 41.8H65.4854ZM61.5334 47.592C61.7254 47.592 61.9228 47.5867 62.1254 47.576C62.3281 47.5547 62.4988 47.5227 62.6374 47.48V42.664C62.5308 42.632 62.3761 42.6107 62.1734 42.6C61.9814 42.5893 61.8108 42.584 61.6614 42.584C60.8401 42.584 60.1841 42.7813 59.6934 43.176C59.2134 43.56 58.9734 44.1893 58.9734 45.064C58.9734 45.864 59.1814 46.488 59.5974 46.936C60.0241 47.3733 60.6694 47.592 61.5334 47.592Z" fill="#F4F4F4"/>
<defs>
<linearGradient id="paint0_linear_38_341" x1="57.2581" y1="36.5294" x2="36.9511" y2="10.438" gradientUnits="userSpaceOnUse">
<stop stop-color="#BB9B49"/>
<stop offset="0.465784" stop-color="#E6C16E"/>
<stop offset="0.806401" stop-color="#B48811"/>
</linearGradient>
<linearGradient id="paint1_linear_38_341" x1="55.5653" y1="42.4038" x2="32.0253" y2="36.9767" gradientUnits="userSpaceOnUse">
<stop offset="0.465784" stop-color="#E6C16E"/>
<stop offset="0.806401" stop-color="#B48811"/>
</linearGradient>
</defs>
</svg>
