<svg width="48" height="39" viewBox="0 0 48 39" fill="none" xmlns="http://www.w3.org/2000/svg">
<g clip-path="url(#clip0_38_756)">
<path d="M31.0052 12.7202L37.0976 19.683C38.2291 20.9762 37.3108 23 35.5925 23H23.4075C21.6892 23 20.7709 20.9762 21.9024 19.683L27.9948 12.7202C28.7917 11.8095 30.2083 11.8095 31.0052 12.7202Z" fill="url(#paint0_linear_38_756)"/>
<rect x="26.8024" y="-1" width="9.15912" height="26.5905" rx="4.57956" transform="rotate(45 26.8024 -1)" fill="url(#paint1_linear_38_756)"/>
<path d="M5.08002 36H2.41602V35.652C2.70402 35.524 2.99202 35.428 3.28002 35.364L6.31602 27.456H6.66402L9.70002 35.364C9.86002 35.396 10.016 35.432 10.168 35.472C10.328 35.512 10.476 35.572 10.612 35.652V36H7.54002V35.652C7.70002 35.588 7.86402 35.532 8.03202 35.484C8.20002 35.436 8.36402 35.396 8.52402 35.364L7.70802 33.168H4.84002L4.04802 35.364C4.38402 35.412 4.72802 35.508 5.08002 35.652V36ZM5.08002 32.544H7.50402L6.55602 30L6.32802 28.968H6.30402L6.00402 30.024L5.08002 32.544ZM16.5269 33.816H16.8389C16.8789 34.04 16.9149 34.324 16.9469 34.668C16.9789 35.004 16.9869 35.332 16.9709 35.652C16.8509 35.748 16.7069 35.828 16.5389 35.892C16.3709 35.948 16.1909 35.996 15.9989 36.036C15.8149 36.076 15.6229 36.104 15.4229 36.12C15.2309 36.136 15.0469 36.144 14.8709 36.144C14.1989 36.144 13.5989 36.06 13.0709 35.892C12.5429 35.716 12.0949 35.452 11.7269 35.1C11.3669 34.748 11.0869 34.3 10.8869 33.756C10.6949 33.204 10.5989 32.552 10.5989 31.8C10.5989 31.016 10.7069 30.352 10.9229 29.808C11.1389 29.256 11.4309 28.808 11.7989 28.464C12.1669 28.112 12.5949 27.856 13.0829 27.696C13.5709 27.536 14.0829 27.456 14.6189 27.456C15.1469 27.456 15.5909 27.492 15.9509 27.564C16.3109 27.628 16.6269 27.728 16.8989 27.864C16.8989 27.992 16.8949 28.144 16.8869 28.32C16.8789 28.488 16.8669 28.668 16.8509 28.86C16.8349 29.052 16.8149 29.24 16.7909 29.424C16.7669 29.608 16.7429 29.776 16.7189 29.928H16.4069L15.7829 28.2C15.6949 28.152 15.5469 28.12 15.3389 28.104C15.1389 28.088 14.9389 28.08 14.7389 28.08C14.3389 28.08 13.9589 28.156 13.5989 28.308C13.2469 28.452 12.9349 28.68 12.6629 28.992C12.3989 29.296 12.1869 29.684 12.0269 30.156C11.8669 30.62 11.7869 31.168 11.7869 31.8C11.7869 32.368 11.8589 32.884 12.0029 33.348C12.1469 33.804 12.3549 34.196 12.6269 34.524C12.8989 34.844 13.2309 35.092 13.6229 35.268C14.0149 35.436 14.4589 35.52 14.9549 35.52C15.2189 35.52 15.4389 35.5 15.6149 35.46C15.7909 35.42 15.9069 35.368 15.9629 35.304L16.5269 33.816ZM22.7926 36H19.4206V35.652C19.5966 35.588 19.7726 35.532 19.9486 35.484C20.1326 35.436 20.3286 35.396 20.5366 35.364V28.224H18.7006L18.0646 29.94H17.7646C17.7406 29.78 17.7206 29.6 17.7046 29.4C17.6886 29.192 17.6726 28.984 17.6566 28.776C17.6486 28.56 17.6406 28.352 17.6326 28.152C17.6246 27.944 17.6206 27.76 17.6206 27.6H24.5926C24.5926 27.76 24.5886 27.94 24.5806 28.14C24.5726 28.34 24.5606 28.548 24.5446 28.764C24.5366 28.972 24.5246 29.18 24.5086 29.388C24.5006 29.588 24.4846 29.772 24.4606 29.94H24.1486L23.5246 28.224H21.6886V35.364C21.8966 35.404 22.0886 35.444 22.2646 35.484C22.4486 35.524 22.6246 35.58 22.7926 35.652V36ZM27.3063 35.364C27.5223 35.388 27.7263 35.428 27.9183 35.484C28.1103 35.532 28.2903 35.588 28.4583 35.652V36H25.1703V35.652C25.3303 35.572 25.4943 35.512 25.6623 35.472C25.8303 35.432 25.9943 35.396 26.1543 35.364V28.248C25.9703 28.216 25.7983 28.176 25.6383 28.128C25.4783 28.072 25.3223 28.012 25.1703 27.948V27.6H26.2503C26.5703 27.6 26.9183 27.584 27.2943 27.552C27.6703 27.52 28.0303 27.504 28.3743 27.504C28.7663 27.504 29.1503 27.548 29.5263 27.636C29.9023 27.716 30.2343 27.856 30.5223 28.056C30.8183 28.256 31.0543 28.524 31.2303 28.86C31.4143 29.188 31.5063 29.6 31.5063 30.096C31.5063 30.568 31.4143 30.972 31.2303 31.308C31.0463 31.644 30.7983 31.92 30.4863 32.136C30.1823 32.352 29.8343 32.512 29.4423 32.616C29.0503 32.712 28.6463 32.76 28.2303 32.76C28.1903 32.76 28.1263 32.76 28.0383 32.76C27.9583 32.76 27.8703 32.76 27.7743 32.76C27.6783 32.752 27.5863 32.744 27.4983 32.736C27.4103 32.728 27.3463 32.72 27.3063 32.712V35.364ZM28.1223 28.128C27.9303 28.128 27.7743 28.132 27.6543 28.14C27.5343 28.148 27.4183 28.164 27.3063 28.188V32.076C27.3463 32.092 27.4023 32.104 27.4743 32.112C27.5543 32.112 27.6343 32.116 27.7143 32.124C27.8023 32.132 27.8863 32.136 27.9663 32.136C28.0463 32.136 28.1103 32.136 28.1583 32.136C28.4383 32.136 28.7023 32.1 28.9503 32.028C29.1983 31.948 29.4143 31.824 29.5983 31.656C29.7903 31.488 29.9423 31.276 30.0543 31.02C30.1663 30.764 30.2223 30.456 30.2223 30.096C30.2223 29.44 30.0343 28.948 29.6583 28.62C29.2903 28.292 28.7783 28.128 28.1223 28.128ZM38.0067 27.6C37.9987 27.92 37.9827 28.244 37.9587 28.572C37.9427 28.892 37.9147 29.216 37.8747 29.544H37.5627L37.0707 28.224H34.4547V31.404H36.4107L36.8787 30.516H37.1787C37.2267 31.308 37.2267 32.116 37.1787 32.94H36.8787L36.4107 32.028H34.4547V35.376H37.2147L37.8027 33.936H38.1027C38.1587 34.272 38.1987 34.612 38.2227 34.956C38.2467 35.3 38.2507 35.648 38.2347 36H32.3187V35.652C32.5987 35.524 32.9267 35.428 33.3027 35.364V28.248C33.1427 28.216 32.9787 28.176 32.8107 28.128C32.6427 28.072 32.4787 28.012 32.3187 27.948V27.6H38.0067ZM46.2391 27.6V27.948C46.1191 28.004 45.9791 28.06 45.8191 28.116C45.6591 28.164 45.4711 28.208 45.2551 28.248V35.364C45.6551 35.42 45.9831 35.516 46.2391 35.652V36H43.0591V35.652C43.3551 35.508 43.7031 35.412 44.1031 35.364V32.472H42.8911C42.7151 32.76 42.5551 33.044 42.4111 33.324C42.2751 33.604 42.1351 33.88 41.9911 34.152C41.8471 34.424 41.6951 34.688 41.5351 34.944C41.3751 35.2 41.1911 35.452 40.9831 35.7L40.5751 36H39.0631V35.7L39.6391 35.412C39.8951 35.14 40.1231 34.872 40.3231 34.608C40.5231 34.344 40.7071 34.088 40.8751 33.84C41.0431 33.592 41.2031 33.348 41.3551 33.108C41.5151 32.868 41.6751 32.632 41.8351 32.4C41.6031 32.328 41.3791 32.228 41.1631 32.1C40.9471 31.972 40.7591 31.812 40.5991 31.62C40.4391 31.428 40.3111 31.204 40.2151 30.948C40.1191 30.684 40.0711 30.384 40.0711 30.048C40.0711 29.608 40.1671 29.232 40.3591 28.92C40.5511 28.6 40.8031 28.34 41.1151 28.14C41.4271 27.94 41.7791 27.796 42.1711 27.708C42.5711 27.612 42.9751 27.564 43.3831 27.564C43.5431 27.564 43.7391 27.572 43.9711 27.588C44.2111 27.596 44.4551 27.6 44.7031 27.6H46.2391ZM43.2751 31.944C43.4191 31.944 43.5671 31.94 43.7191 31.932C43.8711 31.916 43.9991 31.892 44.1031 31.86V28.248C44.0231 28.224 43.9071 28.208 43.7551 28.2C43.6111 28.192 43.4831 28.188 43.3711 28.188C42.7551 28.188 42.2631 28.336 41.8951 28.632C41.5351 28.92 41.3551 29.392 41.3551 30.048C41.3551 30.648 41.5111 31.116 41.8231 31.452C42.1431 31.78 42.6271 31.944 43.2751 31.944Z" fill="#F4F4F4"/>
</g>
<defs>
<linearGradient id="paint0_linear_38_756" x1="41.0161" y1="25.8235" x2="24.8094" y2="4.80008" gradientUnits="userSpaceOnUse">
<stop stop-color="#BB9B49"/>
<stop offset="0.465784" stop-color="#E6C16E"/>
<stop offset="0.806401" stop-color="#B48811"/>
</linearGradient>
<linearGradient id="paint1_linear_38_756" x1="39.3376" y1="30.8452" x2="20.3131" y2="26.4591" gradientUnits="userSpaceOnUse">
<stop offset="0.465784" stop-color="#E6C16E"/>
<stop offset="0.806401" stop-color="#B48811"/>
</linearGradient>
<clipPath id="clip0_38_756">
<rect width="48" height="39" fill="white"/>
</clipPath>
</defs>
</svg>
