<svg width="30" height="30" viewBox="0 0 30 30" fill="none" xmlns="http://www.w3.org/2000/svg">
<path d="M13.797 5.39521L14.6083 6.84888C15.3404 8.16073 15.0465 9.88165 13.8934 11.0347C13.8934 11.0348 13.8934 11.0348 13.8934 11.0348C13.8933 11.0349 12.4948 12.4335 15.0306 14.9694C17.5658 17.5045 18.9644 16.1074 18.9652 16.1066C18.9653 16.1066 18.9653 16.1066 18.9653 16.1066C20.1184 14.9535 21.8393 14.6596 23.1511 15.3917L24.6048 16.203C26.5857 17.3085 26.8196 20.0866 25.0785 21.8277C24.0322 22.874 22.7505 23.6881 21.3336 23.7418C18.9485 23.8322 14.8978 23.2286 10.8346 19.1654C6.77141 15.1021 6.16777 11.0515 6.25819 8.66636C6.3119 7.2495 7.126 5.96779 8.17226 4.92154C9.91344 3.18035 12.6915 3.4143 13.797 5.39521Z" stroke="#EAEAEA" stroke-width="1.5" stroke-linecap="round"/>
<path d="M13.797 5.39521L14.6083 6.84888C15.3404 8.16073 15.0465 9.88165 13.8934 11.0347C13.8934 11.0348 13.8934 11.0348 13.8934 11.0348C13.8933 11.0349 12.4948 12.4335 15.0306 14.9694C17.5658 17.5045 18.9644 16.1074 18.9652 16.1066C18.9653 16.1066 18.9653 16.1066 18.9653 16.1066C20.1184 14.9535 21.8393 14.6596 23.1511 15.3917L24.6048 16.203C26.5857 17.3085 26.8196 20.0866 25.0785 21.8277C24.0322 22.874 22.7505 23.6881 21.3336 23.7418C18.9485 23.8322 14.8978 23.2286 10.8346 19.1654C6.77141 15.1021 6.16777 11.0515 6.25819 8.66636C6.3119 7.2495 7.126 5.96779 8.17226 4.92154C9.91344 3.18035 12.6915 3.4143 13.797 5.39521Z" stroke="#E5C16E" stroke-width="1.5" stroke-linecap="round"/>
</svg>
