<svg width="44" height="44" viewBox="0 0 44 44" fill="none" xmlns="http://www.w3.org/2000/svg">
<path opacity="0.5" d="M33 14.6667L34.7393 15.2464C36.5543 15.8514 37.4618 16.1539 37.9809 16.8741C38.5 17.5943 38.5 18.5509 38.5 20.4642V30.8531C38.5 33.2198 38.5 34.4031 37.8772 35.1633C37.6656 35.4215 37.4089 35.639 37.1195 35.8052C36.2673 36.2945 35.1 36.1 32.7656 35.7109C30.4621 35.327 29.3104 35.1351 28.1689 35.2306C27.7683 35.2641 27.3703 35.324 26.9775 35.4097C25.8584 35.6541 24.8049 36.1809 22.6978 37.2344C19.9483 38.6092 18.5736 39.2966 17.1102 39.5084C16.6694 39.5723 16.2246 39.6039 15.7793 39.603C14.3006 39.6002 12.8551 39.1184 9.96395 38.1547L9.26075 37.9203C7.44569 37.3152 6.53817 37.0127 6.01908 36.2925C5.5 35.5723 5.5 34.6157 5.5 32.7025V23.6647C5.5 20.6234 5.5 19.1027 6.39543 18.2849C6.55211 18.1418 6.72483 18.0173 6.91014 17.9139C7.96916 17.3231 9.41177 17.8039 12.297 18.7657" stroke="#EAEAEA" stroke-width="1.5"/>
<path d="M11 14.1172C11 8.34555 15.9249 3.66667 22 3.66667C28.0751 3.66667 33 8.34555 33 14.1172C33 19.8437 29.4892 26.5259 24.0115 28.9155C22.7346 29.4726 21.2654 29.4726 19.9885 28.9155C14.5108 26.5259 11 19.8437 11 14.1172Z" stroke="#E5C16E" stroke-width="1.5"/>
<circle cx="22" cy="14.6667" r="3.66667" stroke="#E5C16E" stroke-width="1.5"/>
</svg>
